<svg version="1.2" xmlns="http://www.w3.org/2000/svg" viewBox="0 0 30 30" width="30" height="30">
	<title>apollo-logo</title>
	<defs>
		<linearGradient id="g1" x2="1" gradientUnits="userSpaceOnUse" gradientTransform="matrix(28.239,14.119,-14.119,28.239,7.924,3.9)">
			<stop offset="0" stop-color="#ff6c6c"/>
			<stop offset="1" stop-color="#ffd979"/>
		</linearGradient>
	</defs>
	<style>
		.s0 { fill: url(#g1) } 
		.s1 { fill: #ffffff } 
	</style>
	<path id="Shape 2" fill-rule="evenodd" class="s0" d="m15 30c-8.3 0-15-6.7-15-15 0-8.3 6.7-15 15-15 8.3 0 15 6.7 15 15 0 8.3-6.7 15-15 15z"/>
	<g id="Layer 1">
		<path class="s1" d="m15 6q1.5 0 2.5 1 1.1 1 1.1 2.5 0 1.5-1.1 2.5-0.1 0.2-0.3 0.3l4.3 12.8h-2.6l-0.8-2.6h-6.1l-0.9 2.6h-2.6l4.3-12.8q-0.2-0.1-0.3-0.3-1.1-1-1.1-2.5 0-1.5 1.1-2.5 1-1 2.5-1zm-2.2 13.9h4.4l-2.2-6.5zm-2.6-9.8h-1.7v-1.2h1.7zm11.3 0h-1.8v-1.2h1.8zm-9.7-4.5l-0.8 0.8-1-1 0.8-0.9zm8.2-0.2l-1.1 1-0.8-0.8 1-1.1zm-4.4-0.5h-1.2v-1.8h1.2z"/>
	</g>
</svg>